<svg width="61" height="60" viewBox="0 0 61 60" fill="none" xmlns="http://www.w3.org/2000/svg">
<path d="M52.9443 15.0004C52.946 14.2937 52.7068 13.7004 52.2268 13.2204C51.7468 12.7404 51.1527 12.5004 50.4443 12.5004H22.9443C22.2377 12.4987 21.6443 12.7379 21.1643 13.2179C20.6843 13.6979 20.4443 14.292 20.4443 15.0004H52.9443ZM52.9443 15.0004V20.0004C52.9443 20.7087 52.7043 21.3029 52.2243 21.7829C51.7443 22.2629 51.151 22.502 50.4443 22.5004L52.9443 15.0004ZM8.72212 20.0022V20.0004V15.0004C8.72212 14.4883 8.8871 14.0951 9.21432 13.7678C9.54144 13.4407 9.93328 13.2769 10.4425 13.2782V13.2782H10.4443H15.4443C15.9564 13.2782 16.3497 13.4431 16.6769 13.7703C17.004 14.0975 17.1678 14.4893 17.1666 14.9985V15.0004V20.0004C17.1666 20.5124 17.0016 20.9057 16.6744 21.2329C16.3472 21.56 15.9554 21.7238 15.4462 21.7226H15.4443H10.4443C9.93229 21.7226 9.53903 21.5576 9.21182 21.2304L8.66966 21.7726L9.21182 21.2304C8.88469 20.9033 8.72092 20.5114 8.72212 20.0022ZM21.2221 20.0022V20.0004V15.0004C21.2221 14.4883 21.3871 14.0951 21.7143 13.7678C22.0414 13.4407 22.4333 13.2769 22.9425 13.2782H22.9443H50.4443C50.9564 13.2782 51.3497 13.4431 51.6769 13.7703C52.004 14.0975 52.1678 14.4893 52.1666 14.9985V15.0004V20.0004C52.1666 20.5124 52.0016 20.9057 51.6744 21.2329C51.3472 21.56 50.9554 21.7238 50.4462 21.7226H50.4443H22.9443C22.4323 21.7226 22.039 21.5576 21.7118 21.2304C21.3847 20.9033 21.2209 20.5114 21.2221 20.0022ZM21.2221 32.5022V32.5004V27.5004C21.2221 26.9883 21.3871 26.5951 21.7143 26.2678C22.0414 25.9407 22.4333 25.7769 22.9425 25.7782H22.9443H50.4443C50.9564 25.7782 51.3497 25.9431 51.6769 26.2703C52.004 26.5975 52.1678 26.9893 52.1666 27.4985V27.5004V32.5004C52.1666 33.0124 52.0016 33.4057 51.6744 33.7329C51.3472 34.06 50.9554 34.2238 50.4462 34.2226H50.4443H22.9443C22.4323 34.2226 22.039 34.0576 21.7118 33.7304C21.3847 33.4033 21.2209 33.0114 21.2221 32.5022ZM8.72212 32.5022V32.5004V27.5004C8.72212 26.9883 8.8871 26.5951 9.21432 26.2678L8.66434 25.7179L9.21432 26.2678C9.54144 25.9407 9.93328 25.7769 10.4425 25.7782H10.4443H15.4443C15.9564 25.7782 16.3497 25.9431 16.6769 26.2703C17.004 26.5975 17.1678 26.9893 17.1666 27.4985V27.5004V32.5004C17.1666 33.0124 17.0016 33.4057 16.6744 33.7329C16.3472 34.06 15.9554 34.2238 15.4462 34.2226H15.4443H10.4443C9.93229 34.2226 9.53903 34.0576 9.21182 33.7304C8.88469 33.4033 8.72092 33.0114 8.72212 32.5022ZM21.2221 45.0022V45.0004V40.0004C21.2221 39.4883 21.3871 39.0951 21.7143 38.7679C22.0414 38.4407 22.4333 38.277 22.9425 38.2782H22.9443H50.4443C50.9564 38.2782 51.3497 38.4431 51.6769 38.7704C52.004 39.0975 52.1678 39.4893 52.1666 39.9985V40.0004V45.0004C52.1666 45.5124 52.0016 45.9057 51.6744 46.2329C51.3472 46.56 50.9554 46.7238 50.4462 46.7226H50.4443H22.9443C22.4323 46.7226 22.039 46.5576 21.7118 46.2304C21.3847 45.9033 21.2209 45.5114 21.2221 45.0022ZM8.72212 45.0022V45.0004V40.0004C8.72212 39.4883 8.8871 39.0951 9.21432 38.7679L8.67113 38.2247L9.21432 38.7678C9.54144 38.4407 9.93328 38.277 10.4425 38.2782H10.4443H15.4443C15.9564 38.2782 16.3497 38.4431 16.6769 38.7704C17.004 39.0975 17.1678 39.4893 17.1666 39.9985V40.0004V45.0004C17.1666 45.5124 17.0016 45.9057 16.6744 46.2329C16.3472 46.56 15.9554 46.7238 15.4462 46.7226H15.4443H10.4443C9.93229 46.7226 9.53903 46.5576 9.21182 46.2304C8.88469 45.9033 8.72092 45.5114 8.72212 45.0022ZM20.4443 32.5004V27.5004C20.4443 26.792 20.6843 26.1979 21.1643 25.7179C21.6443 25.2379 22.2377 24.9987 22.9443 25.0004L20.4443 32.5004Z" fill="white" stroke="black" stroke-width="1.55556"/>
</svg>
