<svg width="61" height="60" viewBox="0 0 61 60" fill="none" xmlns="http://www.w3.org/2000/svg">
<path d="M10.4443 22.5004C9.73601 22.5004 9.14184 22.2604 8.66184 21.7804C8.18184 21.3004 7.94268 20.707 7.94434 20.0004V15.0004C7.94434 14.292 8.18434 13.6979 8.66434 13.2179C9.14434 12.7379 9.73768 12.4987 10.4443 12.5004H15.4443C16.1527 12.5004 16.7468 12.7404 17.2268 13.2204C17.7068 13.7004 17.946 14.2937 17.9443 15.0004V20.0004C17.9443 20.7087 17.7043 21.3029 17.2243 21.7829C16.7443 22.2629 16.151 22.502 15.4443 22.5004H10.4443ZM22.9443 22.5004C22.236 22.5004 21.6418 22.2604 21.1618 21.7804C20.6818 21.3004 20.4427 20.707 20.4443 20.0004V15.0004C20.4443 14.292 20.6843 13.6979 21.1643 13.2179C21.6443 12.7379 22.2377 12.4987 22.9443 12.5004H50.4443C51.1527 12.5004 51.7468 12.7404 52.2268 13.2204C52.7068 13.7004 52.946 14.2937 52.9443 15.0004V20.0004C52.9443 20.7087 52.7043 21.3029 52.2243 21.7829C51.7443 22.2629 51.151 22.502 50.4443 22.5004H22.9443ZM22.9443 35.0004C22.236 35.0004 21.6418 34.7604 21.1618 34.2804C20.6818 33.8004 20.4427 33.207 20.4443 32.5004V27.5004C20.4443 26.792 20.6843 26.1979 21.1643 25.7179C21.6443 25.2379 22.2377 24.9987 22.9443 25.0004H50.4443C51.1527 25.0004 51.7468 25.2404 52.2268 25.7204C52.7068 26.2004 52.946 26.7937 52.9443 27.5004V32.5004C52.9443 33.2087 52.7043 33.8029 52.2243 34.2829C51.7443 34.7629 51.151 35.002 50.4443 35.0004H22.9443ZM10.4443 35.0004C9.73601 35.0004 9.14184 34.7604 8.66184 34.2804C8.18184 33.8004 7.94268 33.207 7.94434 32.5004V27.5004C7.94434 26.792 8.18434 26.1979 8.66434 25.7179C9.14434 25.2379 9.73768 24.9987 10.4443 25.0004H15.4443C16.1527 25.0004 16.7468 25.2404 17.2268 25.7204C17.7068 26.2004 17.946 26.7937 17.9443 27.5004V32.5004C17.9443 33.2087 17.7043 33.8029 17.2243 34.2829C16.7443 34.7629 16.151 35.002 15.4443 35.0004H10.4443ZM22.9443 47.5004C22.236 47.5004 21.6418 47.2604 21.1618 46.7804C20.6818 46.3004 20.4427 45.707 20.4443 45.0004V40.0004C20.4443 39.292 20.6843 38.6979 21.1643 38.2179C21.6443 37.7379 22.2377 37.4987 22.9443 37.5004H50.4443C51.1527 37.5004 51.7468 37.7404 52.2268 38.2204C52.7068 38.7004 52.946 39.2937 52.9443 40.0004V45.0004C52.9443 45.7087 52.7043 46.3029 52.2243 46.7829C51.7443 47.2629 51.151 47.502 50.4443 47.5004H22.9443ZM10.4443 47.5004C9.73601 47.5004 9.14184 47.2604 8.66184 46.7804C8.18184 46.3004 7.94268 45.707 7.94434 45.0004V40.0004C7.94434 39.292 8.18434 38.6979 8.66434 38.2179C9.14434 37.7379 9.73768 37.4987 10.4443 37.5004H15.4443C16.1527 37.5004 16.7468 37.7404 17.2268 38.2204C17.7068 38.7004 17.946 39.2937 17.9443 40.0004V45.0004C17.9443 45.7087 17.7043 46.3029 17.2243 46.7829C16.7443 47.2629 16.151 47.502 15.4443 47.5004H10.4443Z" fill="black"/>
</svg>
